<svg width="200" height="200" viewBox="0 0 200 200" fill="none" xmlns="http://www.w3.org/2000/svg">
  <!-- Outer Circle -->
  <circle cx="100" cy="100" r="90" fill="url(#gradient1)" stroke="#1e293b" stroke-width="4"/>
  
  <!-- Wheel Segments -->
  <path d="M100 100 L190 100 A90 90 0 0 1 145 174.28 Z" fill="#ef4444" opacity="0.9"/>
  <path d="M100 100 L145 174.28 A90 90 0 0 1 55 174.28 Z" fill="#f97316" opacity="0.9"/>
  <path d="M100 100 L55 174.28 A90 90 0 0 1 10 100 Z" fill="#eab308" opacity="0.9"/>
  <path d="M100 100 L10 100 A90 90 0 0 1 55 25.72 Z" fill="#22c55e" opacity="0.9"/>
  <path d="M100 100 L55 25.72 A90 90 0 0 1 145 25.72 Z" fill="#3b82f6" opacity="0.9"/>
  <path d="M100 100 L145 25.72 A90 90 0 0 1 190 100 Z" fill="#8b5cf6" opacity="0.9"/>
  
  <!-- Inner Circle -->
  <circle cx="100" cy="100" r="35" fill="#1e293b" stroke="#ffffff" stroke-width="3"/>
  
  <!-- Center Star -->
  <path d="M100 75 L105 90 L120 92 L110 102 L113 117 L100 110 L87 117 L90 102 L80 92 L95 90 Z" fill="#fbbf24" stroke="#ffffff" stroke-width="1.5"/>
  
  <!-- Pointer at top -->
  <path d="M100 5 L85 25 L115 25 Z" fill="#ef4444" stroke="#ffffff" stroke-width="2"/>
  
  <!-- Gradient Definition -->
  <defs>
    <radialGradient id="gradient1" cx="50%" cy="50%" r="50%">
      <stop offset="0%" style="stop-color:#ffffff;stop-opacity:0.2" />
      <stop offset="100%" style="stop-color:#000000;stop-opacity:0.1" />
    </radialGradient>
  </defs>
</svg>
